<?xml version="1.0" encoding="UTF-8"?>
<svg xmlns="http://www.w3.org/2000/svg" xmlns:xlink="http://www.w3.org/1999/xlink" width="150pt" height="150pt" viewBox="0 0 150 150" version="1.1">
<g id="surface1">
<path style=" stroke:none;fill-rule:nonzero;fill:rgb(0%,0%,0%);fill-opacity:1;" d="M 150.023438 75.011719 C 150.023438 116.433594 116.445312 150.011719 75.023438 150.011719 C 33.601562 150.011719 0.0234375 116.433594 0.0234375 75.011719 C 0.0234375 33.589844 33.601562 0.0117188 75.023438 0.0117188 C 116.445312 0.0117188 150.023438 33.589844 150.023438 75.011719 Z M 150.023438 75.011719 "/>
<path style=" stroke:none;fill-rule:nonzero;fill:rgb(0%,0%,0%);fill-opacity:1;" d="M 15.550781 76.457031 L 15.550781 108.917969 C 15.519531 109.238281 15.691406 109.546875 15.980469 109.6875 L 27.058594 116.082031 L 32.933594 119.472656 C 33.070312 119.472656 33.207031 119.722656 33.363281 119.652344 C 33.523438 119.585938 33.363281 119.335938 33.363281 119.15625 C 33.363281 114.976562 33.363281 110.792969 33.363281 106.613281 C 33.363281 106.3125 33.25 106.019531 33.046875 105.796875 C 29.757812 101.6875 27.320312 96.960938 25.882812 91.894531 C 24.925781 88.574219 24.558594 85.105469 24.796875 81.65625 C 24.945312 78.183594 26.132812 74.835938 28.210938 72.050781 C 30.160156 69.445312 33.09375 67.753906 36.324219 67.371094 C 40.410156 66.945312 44.519531 67.910156 47.988281 70.105469 C 53.324219 73.273438 57.710938 77.816406 60.691406 83.261719 C 62.679688 86.554688 64.144531 90.140625 65.03125 93.886719 C 65.398438 95.546875 65.640625 97.230469 65.753906 98.925781 C 65.941406 101.386719 65.726562 103.859375 65.121094 106.25 C 64.257812 110.496094 61.421875 114.074219 57.480469 115.878906 C 57.121094 116.039062 57.164062 116.261719 57.164062 116.558594 L 57.164062 124.445312 C 57.164062 127.273438 57.164062 130.074219 57.164062 132.898438 C 57.121094 133.28125 57.332031 133.648438 57.683594 133.804688 C 62.207031 136.425781 66.726562 139.117188 71.429688 141.691406 C 72.335938 142.050781 72.878906 142.988281 72.738281 143.953125 C 72.738281 145.738281 72.738281 147.570312 72.738281 149.378906 C 72.738281 149.898438 72.582031 150.011719 72.085938 149.988281 C 69.527344 149.910156 66.976562 149.683594 64.445312 149.3125 C 60.910156 148.816406 57.421875 148.058594 54 147.050781 C 51.003906 146.175781 48.066406 145.113281 45.207031 143.863281 C 37.191406 140.394531 29.855469 135.535156 23.53125 129.507812 C 21.015625 127.140625 18.671875 124.597656 16.523438 121.890625 C 13.464844 118.101562 10.785156 114.019531 8.523438 109.707031 C 6.605469 106.085938 5 102.304688 3.730469 98.40625 C 0.96875 89.929688 -0.261719 81.027344 0.0898438 72.117188 C 0.292969 67.15625 0.996094 62.222656 2.191406 57.402344 C 3.625 51.664062 5.703125 46.105469 8.386719 40.835938 C 8.929688 39.792969 8.90625 39.792969 9.902344 40.382812 L 15.054688 43.34375 C 15.425781 43.492188 15.65625 43.871094 15.621094 44.269531 C 15.574219 54.96875 15.550781 65.699219 15.550781 76.457031 Z M 15.550781 76.457031 "/>
<path style=" stroke:none;fill-rule:nonzero;fill:rgb(0%,0%,0%);fill-opacity:1;" d="M 134.472656 43.589844 C 135.714844 42.734375 137.046875 42.078125 138.335938 41.332031 C 139.105469 40.855469 139.894531 40.449219 140.597656 39.976562 C 140.9375 39.773438 141.09375 39.773438 141.273438 40.132812 C 142.652344 42.800781 143.890625 45.539062 144.980469 48.339844 C 146.113281 51.289062 147.058594 54.308594 147.808594 57.378906 C 148.421875 59.820312 148.890625 62.296875 149.207031 64.792969 C 149.523438 67.054688 149.730469 69.519531 149.839844 71.890625 C 150 74.558594 150 77.230469 149.839844 79.894531 C 148.976562 93.347656 144.496094 106.320312 136.867188 117.4375 C 126.398438 132.6875 110.671875 143.535156 92.699219 147.910156 C 89.5 148.691406 86.253906 149.25 82.980469 149.582031 C 81.328125 149.738281 79.679688 149.898438 78.027344 149.945312 C 77.644531 149.945312 77.507812 149.945312 77.507812 149.445312 C 77.507812 147.1875 77.507812 144.925781 77.507812 142.664062 C 77.476562 142.363281 77.652344 142.074219 77.9375 141.964844 L 87.613281 136.402344 L 99.660156 129.441406 L 110.171875 123.382812 L 122.535156 116.242188 C 126.425781 113.980469 130.328125 111.71875 134.246094 109.460938 C 134.695312 109.460938 134.5625 109.144531 134.5625 108.917969 L 134.5625 87.105469 C 134.5625 87.105469 134.695312 86.789062 134.449219 86.742188 L 128.140625 90.335938 L 124.933594 92.191406 C 124.679688 92.316406 124.5 92.550781 124.433594 92.824219 C 122.703125 98.351562 119.761719 103.425781 115.824219 107.675781 C 113.167969 110.636719 109.945312 113.042969 106.351562 114.75 C 104.21875 115.753906 101.921875 116.367188 99.570312 116.558594 C 96.234375 116.867188 92.910156 115.824219 90.347656 113.664062 C 88.222656 111.808594 86.695312 109.359375 85.964844 106.632812 C 85.050781 103.371094 84.84375 99.949219 85.351562 96.597656 C 86.375 89.109375 89.636719 82.105469 94.710938 76.503906 C 97.507812 73.230469 100.976562 70.59375 104.882812 68.773438 C 107.726562 67.398438 110.890625 66.820312 114.035156 67.101562 C 116.628906 67.332031 119.074219 68.421875 120.976562 70.195312 C 121.3125 70.445312 121.609375 70.742188 121.859375 71.078125 C 122.039062 71.371094 122.242188 71.28125 122.46875 71.078125 L 129.25 67.214844 L 134.425781 64.320312 C 134.695312 64.160156 134.585938 63.890625 134.585938 63.664062 L 134.585938 44.15625 C 134.5625 44.019531 134.628906 43.796875 134.472656 43.589844 Z M 134.472656 43.589844 "/>
<path style=" stroke:none;fill-rule:nonzero;fill:rgb(0%,0%,0%);fill-opacity:1;" d="M 55.335938 17.824219 L 61.03125 21.054688 L 63.585938 22.523438 C 63.777344 22.671875 64.023438 22.726562 64.261719 22.683594 C 67.957031 21.777344 71.769531 21.433594 75.566406 21.664062 C 79.992188 21.886719 84.339844 22.9375 88.382812 24.761719 C 91.957031 26.285156 95.074219 28.714844 97.421875 31.816406 C 99.238281 34.195312 100.152344 37.144531 100 40.132812 C 99.789062 42.957031 98.699219 45.644531 96.878906 47.820312 C 94.5625 50.601562 91.609375 52.789062 88.269531 54.191406 C 84.597656 55.847656 80.664062 56.835938 76.648438 57.109375 C 70.871094 57.6875 65.035156 56.914062 59.605469 54.847656 C 56.65625 53.726562 53.945312 52.0625 51.605469 49.945312 C 49.546875 48.148438 47.992188 45.851562 47.085938 43.273438 C 46.328125 40.976562 46.28125 38.503906 46.949219 36.175781 C 47.015625 36.046875 47.027344 35.894531 46.972656 35.753906 C 46.921875 35.617188 46.8125 35.507812 46.675781 35.453125 L 36.234375 29.394531 C 35.941406 29.195312 35.554688 29.195312 35.261719 29.394531 L 18.46875 39.117188 C 18.203125 39.308594 17.847656 39.308594 17.585938 39.117188 C 15.640625 37.964844 13.675781 36.855469 11.707031 35.726562 C 11.371094 35.523438 11.324219 35.363281 11.527344 35.023438 C 13.574219 31.855469 15.839844 28.835938 18.308594 25.984375 C 20.128906 23.898438 22.058594 21.914062 24.097656 20.039062 C 27.347656 17 30.875 14.265625 34.628906 11.878906 C 37.835938 9.796875 41.199219 7.964844 44.6875 6.410156 C 49.054688 4.472656 53.59375 2.957031 58.25 1.886719 C 61.707031 1.101562 65.210938 0.550781 68.738281 0.238281 C 71.820312 -0.03125 74.914062 -0.105469 78.007812 0.0117188 C 80.921875 0.140625 83.824219 0.425781 86.707031 0.871094 C 95.503906 2.253906 103.976562 5.203125 111.730469 9.574219 C 120.21875 14.335938 127.691406 20.71875 133.726562 28.355469 C 135.398438 30.480469 136.980469 32.675781 138.449219 34.957031 C 138.675781 35.320312 138.628906 35.476562 138.292969 35.679688 L 132.460938 39.046875 C 132.179688 39.242188 131.8125 39.242188 131.53125 39.046875 L 116.296875 30.234375 L 98.597656 20.039062 L 81.195312 9.980469 L 75.679688 6.792969 C 75.316406 6.546875 74.839844 6.546875 74.480469 6.792969 C 69.417969 9.804688 64.339844 12.753906 59.246094 15.628906 Z M 55.335938 17.824219 "/>
</g>
</svg>
