<svg id="Capa_1" data-name="Capa 1" xmlns="http://www.w3.org/2000/svg" viewBox="0 0 66.36 66.35">
  <defs>
    <style>
      .cls-1 {
        fill: #fcf6f3;
      }
      .cls-2 {
        fill: #219667;
      }
      .cls-3 {
        fill: #173c64;
      }
      .cls-4 {
        fill: #c42229;
      }
    </style>
  </defs>
  <title>logo01</title><circle class="cls-1" cx="33.19" cy="33.18" r="33.18"/><path
    class="cls-2"
    d="M281.11,397.29v14.36a.34.34,0,0,0,.19.34l4.9,2.83,2.6,1.5c.06,0,.12.11.19.08s0-.14,0-.22c0-1.85,0-3.7,0-5.55a.54.54,0,0,0-.14-.36,17.49,17.49,0,0,1-3.17-6.15,13.09,13.09,0,0,1-.48-4.53,7.66,7.66,0,0,1,1.51-4.25,5.26,5.26,0,0,1,3.59-2.07,8.08,8.08,0,0,1,5.16,1.21,15.32,15.32,0,0,1,5.62,5.82A16.42,16.42,0,0,1,303,405a15.16,15.16,0,0,1,.32,2.23,10.08,10.08,0,0,1-.28,3.24,6,6,0,0,1-3.38,4.26c-.16.07-.14.17-.14.3v3.49c0,1.25,0,2.49,0,3.74a.39.39,0,0,0,.23.4c2,1.16,4,2.35,6.08,3.49a.93.93,0,0,1,.58,1c0,.79,0,1.6,0,2.4,0,.23-.07.28-.29.27a29.46,29.46,0,0,1-3.38-.3,32,32,0,0,1-4.62-1,32.3,32.3,0,0,1-3.89-1.41,32.78,32.78,0,0,1-9.59-6.35,31.82,31.82,0,0,1-3.1-3.37A33,33,0,0,1,278,412a31.81,31.81,0,0,1-2.12-5,33.31,33.31,0,0,1-1.61-11.63,32.54,32.54,0,0,1,.93-6.51,34.58,34.58,0,0,1,2.74-7.33c.24-.46.23-.46.67-.2l2.28,1.31a.4.4,0,0,1,.25.41Q281.11,390.15,281.11,397.29Z"
    transform="translate(-274.23 -363.47)"/><path
    class="cls-3"
    d="M333.72,382.75c.55-.38,1.14-.67,1.71-1,.34-.21.69-.39,1-.6.15-.09.22-.09.3.07a38.06,38.06,0,0,1,1.64,3.63,33.07,33.07,0,0,1,1.25,4,27.89,27.89,0,0,1,.62,3.28c.14,1,.23,2.09.28,3.14a29.87,29.87,0,0,1,0,3.54,33.11,33.11,0,0,1-5.74,16.61,33.23,33.23,0,0,1-19.54,13.48,31.42,31.42,0,0,1-4.3.74c-.73.07-1.46.14-2.19.16-.17,0-.23,0-.23-.22,0-1,0-2,0-3a.3.3,0,0,1,.19-.31l4.28-2.46,5.33-3.08,4.65-2.68,5.47-3.16q2.58-1.5,5.18-3c.2,0,.14-.14.14-.24V402s.06-.14-.05-.16l-2.79,1.59-1.42.82a.42.42,0,0,0-.22.28,17.25,17.25,0,0,1-3.81,6.57,13.27,13.27,0,0,1-4.19,3.13,8.67,8.67,0,0,1-3,.8,5.54,5.54,0,0,1-4.08-1.28,6.3,6.3,0,0,1-1.94-3.11,10.57,10.57,0,0,1-.27-4.44,16.58,16.58,0,0,1,4.14-8.89,13.33,13.33,0,0,1,4.5-3.42,7.74,7.74,0,0,1,4.05-.74,5.17,5.17,0,0,1,3.07,1.37,1.8,1.8,0,0,1,.39.39c.08.13.17.09.27,0l3-1.71,2.29-1.28c.12-.07.07-.19.07-.29V383C333.76,382.94,333.79,382.84,333.72,382.75Z"
    transform="translate(-274.23 -363.47)"/><path
    class="cls-4"
    d="M298.71,371.35l2.52,1.43,1.13.65a.38.38,0,0,0,.3.07,16.75,16.75,0,0,1,5-.45,15.67,15.67,0,0,1,5.67,1.37,9.86,9.86,0,0,1,4,3.12,5.6,5.6,0,0,1,1.14,3.68,6,6,0,0,1-1.38,3.4,10,10,0,0,1-3.81,2.82,15,15,0,0,1-5.14,1.29,16.55,16.55,0,0,1-7.54-1,11.23,11.23,0,0,1-3.54-2.17,7,7,0,0,1-2-2.95,5.34,5.34,0,0,1-.06-3.14.23.23,0,0,0-.12-.32l-4.62-2.68a.38.38,0,0,0-.43,0l-7.43,4.3a.33.33,0,0,1-.39,0c-.86-.51-1.73-1-2.6-1.5-.15-.09-.17-.16-.08-.31a35.69,35.69,0,0,1,3-4,33.43,33.43,0,0,1,2.56-2.63,31.89,31.89,0,0,1,4.66-3.61A32.43,32.43,0,0,1,294,366.3a33.07,33.07,0,0,1,6-2,34.71,34.71,0,0,1,4.64-.73,33,33,0,0,1,4.1-.1,35.58,35.58,0,0,1,3.85.38,33,33,0,0,1,11.07,3.85,32.93,32.93,0,0,1,9.73,8.31c.74.94,1.44,1.91,2.09,2.92.1.16.08.23-.07.32l-2.58,1.49a.36.36,0,0,1-.41,0l-6.74-3.9-7.83-4.51-7.7-4.45-2.44-1.41a.47.47,0,0,0-.53,0q-3.36,2-6.74,3.91Z"
    transform="translate(-274.23 -363.47)"/></svg>
