<?xml version="1.0" encoding="utf-8"?>
<!-- Generator: Adobe Illustrator 22.1.0, SVG Export Plug-In . SVG Version: 6.00 Build 0)  -->
<svg version="1.1" id="Layer_1" xmlns="http://www.w3.org/2000/svg" xmlns:xlink="http://www.w3.org/1999/xlink" x="0px" y="0px"
	width="100pt" height="100pt"
	 viewBox="0 0 85 85" style="enable-background:new 0 0 85 85;" xml:space="preserve">
<style type="text/css">
	.st0{fill:#FFFFFF;}
	.st1{fill:#219667;}
	.st2{fill:#173C64;}
	.st3{fill:#C42229;}
</style>
<g>
	<path class="st0" d="M42.5,0C66,0,85,19,85,42.5S66,85,42.5,85S0,66,0,42.5S19,0,42.5,0z"/>
</g>
<path class="st1" d="M8.4,43.6c0,6.2,0,12.3,0,18.5c0,0.2,0.1,0.3,0.2,0.4c2.1,1.2,4.2,2.4,6.3,3.6c1.1,0.6,2.2,1.3,3.3,1.9
	c0.1,0,0.2,0.1,0.2,0.1c0.1-0.1,0.1-0.2,0.1-0.3c0-2.4,0-4.8,0-7.2c0-0.2-0.1-0.3-0.2-0.5c-1.9-2.4-3.3-5-4.1-7.9
	c-0.5-1.9-0.8-3.9-0.6-5.8c0.2-2,0.7-3.9,1.9-5.5c1.2-1.5,2.7-2.4,4.6-2.7c2.4-0.3,4.6,0.4,6.6,1.6c3.1,1.8,5.5,4.4,7.2,7.5
	c1.1,1.9,1.9,3.9,2.4,6c0.2,0.9,0.3,1.9,0.4,2.9c0.1,1.4,0,2.8-0.4,4.2c-0.6,2.5-1.9,4.4-4.3,5.5c-0.2,0.1-0.2,0.2-0.2,0.4
	c0,1.5,0,3,0,4.5c0,1.6,0,3.2,0,4.8c0,0.2,0.1,0.4,0.3,0.5c2.6,1.5,5.2,3,7.8,4.5c0.6,0.3,0.8,0.6,0.7,1.3c-0.1,1,0,2.1,0,3.1
	c0,0.3-0.1,0.4-0.4,0.4c-1.5,0-2.9-0.2-4.4-0.4c-2-0.3-4-0.7-5.9-1.3c-1.7-0.5-3.4-1.1-5-1.8c-3-1.3-5.7-2.9-8.3-4.8
	c-1.4-1-2.8-2.2-4-3.4c-1.4-1.4-2.8-2.8-4-4.3c-1.7-2.2-3.2-4.5-4.5-6.9c-1.1-2.1-2-4.2-2.7-6.5c-0.7-2.2-1.3-4.5-1.6-6.9
	c-0.4-2.7-0.6-5.4-0.5-8.1c0.1-2.8,0.5-5.6,1.2-8.4c0.8-3.3,2-6.4,3.5-9.4c0.3-0.6,0.3-0.6,0.9-0.3c1,0.6,2,1.1,2.9,1.7
	c0.2,0.1,0.3,0.3,0.3,0.5C8.4,31.3,8.4,37.4,8.4,43.6z"/>
<path class="st2" d="M76.2,24.8c0.7-0.5,1.5-0.9,2.2-1.3c0.4-0.3,0.9-0.5,1.3-0.8c0.2-0.1,0.3-0.1,0.4,0.1c0.8,1.5,1.5,3.1,2.1,4.7
	c0.6,1.7,1.2,3.4,1.6,5.2c0.3,1.4,0.6,2.8,0.8,4.2c0.2,1.3,0.3,2.7,0.4,4c0.1,1.5,0.1,3,0,4.6c-0.2,3.5-0.9,7-2,10.4
	c-1.3,3.9-3.1,7.6-5.4,11c-1.5,2.1-3.1,4.1-4.9,5.9c-2.7,2.7-5.8,5.1-9.1,7c-3.5,2-7.2,3.5-11.1,4.4c-1.8,0.4-3.7,0.8-5.5,1
	c-0.9,0.1-1.9,0.2-2.8,0.2c-0.2,0-0.3,0-0.3-0.3c0-1.3,0-2.5,0-3.8c0-0.2,0.1-0.3,0.3-0.4c1.8-1.1,3.7-2.1,5.5-3.2
	c2.3-1.3,4.6-2.6,6.9-4c2-1.2,4-2.3,6-3.5c2.3-1.4,4.7-2.7,7-4.1c2.2-1.3,4.4-2.6,6.7-3.8c0.3,0,0.2-0.2,0.2-0.3c0-4.2,0-8.3,0-12.5
	c0-0.1,0.1-0.2-0.1-0.2c-1.2,0.7-2.4,1.4-3.6,2c-0.6,0.4-1.2,0.7-1.8,1.1c-0.1,0.1-0.2,0.2-0.3,0.4c-1,3.2-2.6,6-4.9,8.5
	c-1.5,1.7-3.3,3.1-5.4,4c-1.2,0.6-2.5,0.9-3.9,1c-2,0.1-3.7-0.4-5.3-1.6c-1.3-1.1-2-2.4-2.5-4c-0.6-1.9-0.6-3.8-0.4-5.7
	c0.6-4.4,2.5-8.1,5.3-11.4c1.6-1.9,3.5-3.4,5.8-4.4c1.7-0.8,3.4-1.1,5.2-1c1.5,0.2,2.8,0.7,4,1.8c0.2,0.2,0.4,0.3,0.5,0.5
	c0.1,0.2,0.2,0.1,0.3,0c1.3-0.7,2.6-1.5,3.9-2.2c1-0.6,2-1.1,2.9-1.7c0.2-0.1,0.1-0.2,0.1-0.4c0-3.7,0-7.4,0-11.2
	C76.2,25.1,76.2,25,76.2,24.8z"/>
<path class="st3" d="M31,10.2c1.1,0.6,2.2,1.2,3.3,1.8c0.5,0.3,1,0.6,1.5,0.8c0.1,0.1,0.2,0.1,0.4,0.1c2.1-0.5,4.3-0.7,6.5-0.6
	c2.5,0.1,5,0.7,7.3,1.8c2,0.9,3.8,2.2,5.1,4c1,1.4,1.6,3,1.5,4.7c-0.1,1.6-0.7,3.1-1.8,4.4c-1.3,1.6-3,2.8-4.9,3.6
	c-2.1,1-4.3,1.5-6.6,1.7c-3.3,0.3-6.6-0.1-9.7-1.3c-1.7-0.7-3.2-1.6-4.6-2.8c-1.1-1.1-2-2.3-2.5-3.8c-0.4-1.3-0.5-2.7-0.1-4
	c0.1-0.2,0-0.3-0.2-0.4c-2-1.1-4-2.3-6-3.4c-0.2-0.1-0.4-0.1-0.6,0c-3.2,1.9-6.4,3.7-9.6,5.5c-0.2,0.1-0.3,0.1-0.5,0
	c-1.1-0.7-2.2-1.3-3.3-1.9C6,20.2,6,20.1,6.1,19.9c1.2-1.8,2.4-3.6,3.9-5.2c1-1.2,2.1-2.3,3.3-3.4c1.9-1.7,3.9-3.3,6-4.6
	C21.1,5.5,23,4.5,25,3.7c2.5-1.1,5-2,7.7-2.6c2-0.4,4-0.8,6-0.9C40.4,0,42.2,0,43.9,0c1.7,0.1,3.3,0.2,5,0.5c2.5,0.4,4.9,1,7.3,1.8
	c2.4,0.8,4.7,1.9,7,3.1c2.4,1.4,4.7,3,6.8,4.8c2.1,1.8,4,3.8,5.7,5.9c1,1.2,1.9,2.5,2.7,3.8c0.1,0.2,0.1,0.3-0.1,0.4
	c-1.1,0.6-2.2,1.3-3.3,1.9c-0.2,0.1-0.3,0.1-0.5,0c-2.9-1.7-5.8-3.4-8.7-5c-3.4-1.9-6.7-3.9-10.1-5.8c-3.3-1.9-6.6-3.8-9.9-5.7
	c-1-0.6-2.1-1.2-3.1-1.8c-0.2-0.1-0.4-0.2-0.7,0c-2.9,1.7-5.8,3.4-8.7,5C32.5,9.3,31.8,9.7,31,10.2z"/>
</svg>
